<?xml version="1.0" encoding="UTF-8"?>
<svg id="Layer_1" xmlns="http://www.w3.org/2000/svg" version="1.1" viewBox="0 0 67 20">
  <!-- Generator: Adobe Illustrator 30.3.0, SVG Export Plug-In . SVG Version: 2.1.3 Build 182)  -->
  <defs>
    <style>
      .st0 {
        fill: #fff;
      }
    </style>
  </defs>
  <path class="st0" d="M11.51,11.88c.11.18.11.4.02.58-.11.19-.31.31-.52.31h-.42c-.69,0-1.31-.39-1.6-1-.23-.44-.48-.98-.79-1.66h-2.11c-.64,0-1.45-.16-1.22-1.05.11-.44.64-.69,1.19-.69h1.39c-.47-1.1-1.05-2.63-1.64-4.17-.02-.05-.05-.05-.06,0-1.43,3.75-2.48,6.25-3.13,7.57-.31.61-.92,1-1.61,1h-.4c-.23,0-.42-.11-.53-.31-.1-.19-.1-.4.02-.6C1.84,9.06,4,3.74,4.61,2.18c.15-.34.52-.58,1.06-.58h.13c.63,0,1.03.24,1.18.58.61,1.56,2.77,6.88,4.53,9.7Z"/>
  <path class="st0" d="M15.95,1.48c.6,0,.97.6.97,1.27v7.85c0,1.43-.55,2.01-1.22,2.01-.23,0-.76-.14-.89-.63-.18-.69.13-1.05.13-1.64V2.84c0-.92.53-1.35.93-1.35h.08ZM23.54,11.55c-1.05,1.21-3.24,1.06-3.24,1.06-2.22,0-2.63-.43-2.61-.92-.06-.71.53-.98.95-.98h1.85c.23,0,.47-.02.69-.08.97-.24,1.39-.69,1.39-1.35,0-1.03-.9-1.61-2.56-1.61h-.71c-.48,0-.89-.19-1.1-.55-.13-.16-.13-.31-.13-.4,0-.05-.02-.11,0-.16,0-.27.19-.5.47-.56.08-.03.19-.06.31-.06h1.89c.76.05,1.47-.61,1.47-1.37,0-1.03-.95-1.3-2.09-1.24h-1.08c-.68,0-1.22-.55-1.22-1.22,0-.34.27-.61.61-.61h1.35c3.58,0,4.22,1.58,4.24,2.9.03,1.14-.39,1.87-.93,2.35.89.56,1.22,1.35,1.29,2.08.1.92-.19,2.06-.82,2.74Z"/>
  <path class="st0" d="M39.27,7.19c0,3.09-2.61,5.61-5.83,5.61s-5.83-2.51-5.83-5.61,2.61-5.67,5.83-5.67c1.16,0,2.24.34,3.16.92,1.61,1.02,2.67,2.77,2.67,4.75ZM33.43,3.37c-2.19,0-3.98,1.69-3.98,3.77s1.79,3.77,3.98,3.77,3.98-1.69,3.98-3.77c0-1.48-.92-2.77-2.22-3.38-.53-.24-1.13-.39-1.76-.39Z"/>
  <path class="st0" d="M50.22,11.38c-.1.61-.39.79-.73,1.02-.44.26-1.05.43-1.68.43-4.72,0-4.74-3.8-4.66-4.75.02-.23.02-.44.02-.66v-3.13c-.02-.23-.06-.42-.13-.58-.27-.63-.4-.9-.21-1.43.13-.36.37-.52.64-.58.56-.15,1.1.21,1.37.72.16.31.27.68.32,1.05.11.95.08,2.32.08,2.32v2.82s-.1,2.11,2.22,2.14c.63.02.82-.03,1.16-.19.13-.05.77-.43,1.35.11.23.21.27.45.23.71ZM52.12,1.64c.4,0,1.02.5,1.02,1.42v7.54c0,.61.31.95.11,1.66-.11.47-.73.56-.95.56-.68,0-1.22-.58-1.22-2.03V2.93c0-.69.39-1.29.97-1.29h.08Z"/>
  <path class="st0" d="M67,2.47v.13c0,.52-.39,1.01-1.26,1.01h-2.96v7.36c0,1.47-.55,2.06-1.24,2.06-.22,0-.77-.16-.9-.64-.18-.71.13-1.06.13-1.68V3.61h-3.01c-.64,0-1.24-.58-1.24-1.16,0-.37.32-.76.73-.76h7.4c.36,0,.68-.03.97-.06.53-.05.97-.1,1.21.13.13.11.19.4.19.71Z"/>
</svg>