<?xml version="1.0" encoding="UTF-8"?>
<svg id="Layer_1" xmlns="http://www.w3.org/2000/svg" version="1.1" viewBox="0 0 64 20">
  <!-- Generator: Adobe Illustrator 30.3.0, SVG Export Plug-In . SVG Version: 2.1.3 Build 182)  -->
  <defs>
    <style>
      .st0 {
        fill: #fff;
      }
    </style>
  </defs>
  <path class="st0" d="M11.08,11.9c.11.17.11.39.02.56-.11.19-.29.29-.5.29h-.4c-.67,0-1.26-.37-1.53-.96-.22-.42-.47-.95-.76-1.6h-2.03c-.62,0-1.4-.16-1.18-1.01.11-.42.62-.67,1.15-.67h1.33c-.45-1.05-1.01-2.53-1.58-4.02-.02-.05-.05-.05-.06,0-1.38,3.61-2.39,6.01-3.01,7.29-.29.59-.88.96-1.55.96h-.39c-.22,0-.4-.11-.51-.29-.09-.19-.09-.39.02-.57,1.69-2.7,3.77-7.81,4.36-9.32.14-.33.5-.56,1.02-.56h.12c.6,0,.99.23,1.13.56.59,1.5,2.67,6.62,4.36,9.33Z"/>
  <path class="st0" d="M15.27,1.9c.57,0,.93.57.93,1.22v7.55c0,1.38-.53,1.94-1.18,1.94-.22,0-.73-.14-.85-.6-.17-.67.12-1.01.12-1.58V3.21c0-.88.51-1.3.9-1.3h.08ZM22.57,11.59c-1.01,1.16-3.12,1.02-3.12,1.02-2.14,0-2.53-.42-2.51-.88-.06-.68.51-.95.91-.95h1.78c.22,0,.45-.02.67-.08.93-.23,1.33-.67,1.33-1.3,0-.99-.87-1.55-2.46-1.55h-.68c-.46,0-.85-.19-1.05-.53-.12-.16-.12-.29-.12-.39,0-.05-.02-.11,0-.15,0-.26.19-.48.45-.54.08-.03.19-.06.29-.06h1.81c.73.05,1.41-.59,1.41-1.32,0-.99-.91-1.26-2.02-1.19h-1.04c-.65,0-1.18-.53-1.18-1.18,0-.33.26-.59.59-.59h1.3c3.44,0,4.06,1.52,4.08,2.79.03,1.1-.37,1.8-.9,2.26.85.54,1.18,1.3,1.24,2,.09.88-.19,1.98-.79,2.64Z"/>
  <path class="st0" d="M37.81,7.39c0,2.98-2.51,5.4-5.61,5.4s-5.61-2.42-5.61-5.4,2.51-5.46,5.61-5.46c1.12,0,2.15.33,3.04.88,1.55.98,2.57,2.67,2.57,4.57ZM32.19,3.72c-2.11,0-3.83,1.63-3.83,3.63s1.72,3.63,3.83,3.63,3.83-1.63,3.83-3.63c0-1.43-.88-2.67-2.14-3.26-.51-.23-1.09-.37-1.69-.37Z"/>
  <path class="st0" d="M48.06,11.42c-.09.59-.37.76-.7.98-.42.25-1.01.42-1.61.42-4.54,0-4.56-3.66-4.48-4.57.02-.22.02-.42.02-.64v-3.01c-.02-.22-.06-.4-.12-.56-.26-.6-.39-.87-.2-1.38.12-.34.36-.5.62-.56.54-.14,1.05.2,1.32.7.16.29.26.65.31,1.01.11.91.08,2.23.08,2.23v2.71s-.09,2.03,2.14,2.06c.6.02.79-.03,1.12-.19.12-.05.74-.42,1.3.11.22.2.26.43.22.68ZM49.89,2.06c.39,0,.98.48.98,1.36v7.26c0,.59.29.91.11,1.6-.11.45-.7.54-.91.54-.65,0-1.18-.56-1.18-1.95V3.3c0-.67.37-1.24.93-1.24h.08Z"/>
  <path class="st0" d="M64,2.85v.12c0,.5-.37.98-1.21.98h-2.85v7.08c0,1.41-.53,1.98-1.19,1.98-.22,0-.74-.15-.87-.62-.17-.68.12-1.02.12-1.61V3.95h-2.9c-.62,0-1.19-.56-1.19-1.12,0-.36.31-.73.7-.73h7.12c.34,0,.65-.03.93-.06.51-.05.93-.09,1.16.12.12.11.19.39.19.68Z"/>
</svg>