<?xml version="1.0" encoding="UTF-8"?>
<svg id="Layer_1" xmlns="http://www.w3.org/2000/svg" version="1.1" viewBox="0 0 104 20">
  <!-- Generator: Adobe Illustrator 30.3.0, SVG Export Plug-In . SVG Version: 2.1.3 Build 182)  -->
  <defs>
    <style>
      .st0 {
        fill: #fff;
      }
    </style>
  </defs>
  <path class="st0" d="M11.51,11.87c.11.18.11.4.02.58-.11.19-.31.31-.52.31h-.42c-.69,0-1.31-.39-1.6-1-.23-.44-.48-.98-.79-1.66h-2.11c-.64,0-1.45-.16-1.22-1.05.11-.44.64-.69,1.19-.69h1.39c-.47-1.1-1.05-2.63-1.64-4.17-.02-.05-.05-.05-.06,0-1.43,3.75-2.48,6.25-3.13,7.57-.31.61-.92,1-1.61,1h-.4c-.23,0-.42-.11-.53-.31-.1-.19-.1-.4.02-.6C1.84,9.05,4,3.73,4.61,2.17c.15-.34.52-.58,1.06-.58h.13c.63,0,1.03.24,1.18.58.61,1.56,2.77,6.88,4.53,9.7Z"/>
  <path class="st0" d="M15.37,1.62c.6,0,1.08.47,1.08,1.06v8.25c0,1.06-.55,1.97-1.24,1.97-.42-.02-.82-.34-.93-.68-.24-.69.18-1.68.18-2.29V2.81c0-.74.34-1.19.74-1.19h.18ZM19.83,8.43c-1.77.02-2.37-.32-2.37-.85-.06-.72.56-1,1.02-1h1.55c.23,0,.45-.03.68-.08,1.02-.26,1.47-.73,1.47-1.43,0-1.06-.95-1.69-2.67-1.69h-.35c-.11,0-.21.02-.32.02-1.19.11-1.53-.45-1.53-1.14.02-.34.29-.63.64-.63h1.05c3.74,0,4.96,1.58,5.06,2.97.1,1.08-.15,2.11-.93,2.82-1.05,1.03-3.27,1.03-3.27,1.03Z"/>
  <path class="st0" d="M28.32,1.57c.6,0,.98.6.98,1.29v7.94c0,1.47-.56,2.05-1.24,2.05-.23,0-.77-.16-.9-.63-.18-.72.13-1.06.13-1.68V2.94c0-.93.55-1.37.95-1.37h.08ZM36.82,1.8c.15.13.21.34.21.63v.15c0,.5-.39,1-1.26,1h-4.43c-.63,0-1.22-.56-1.22-1.16,0-.37.32-.66.71-.66h3.85c.34,0,.66-.03.95-.06.53-.06.95-.1,1.19.11ZM31.26,8.02c-.63,0-1.14-.48-1.14-1.08,0-.37.37-.74.95-.74h3.53c.35,0,.66-.03.95-.06.5-.05.85-.1,1.08.11.13.11.19.32.19.63v.15c0,.5-.43,1-.98,1h-4.58ZM36.79,10.74c.16.15.24.39.24.77v.16c0,.53-.44.98-.98.98h-4.79c-.63,0-1.14-.52-1.14-1.16,0-.39.27-.76.66-.76h3.85c.39,0,.77-.02,1.08-.06.47-.08.85-.13,1.08.06Z"/>
  <path class="st0" d="M41.67,1.68c.6,0,1.08.48,1.08,1.06v8.27c0,1.08-.55,1.98-1.24,1.98-.42-.03-.82-.35-.93-.68-.24-.69.16-1.68.16-2.3V2.88c0-.73.34-1.19.76-1.19h.18ZM51.02,11.8c.05.18.05.35-.03.5-.14.29-.5.55-.84.61-.55.11-.97-.08-1.14-.18-1.31-.72-2.5-2.19-3.03-4.58-2.26,0-2.45-.69-2.45-.93,0-.44.35-.79.77-.79h2.13c1.03,0,1.85-.61,1.85-1.39,0-1.05-.81-1.55-2.5-1.55h-1.08c-.69,0-1.26-.56-1.26-1.26,0-.34.29-.61.63-.61h1.37c3.63,0,4.54,1.6,4.67,2.95.08.92-.21,1.8-.84,2.5-.4.45-.93.76-1.5.93.31.87,1.05,2.38,2.59,3.14.32.16.55.4.64.64Z"/>
  <path class="st0" d="M63.79,2.46v.13c0,.52-.39,1.02-1.26,1.02h-2.96v7.36c0,1.47-.55,2.06-1.24,2.06-.23,0-.77-.16-.9-.64-.18-.71.13-1.06.13-1.68V3.6h-3.01c-.64,0-1.24-.58-1.24-1.16,0-.37.32-.76.73-.76h7.4c.35,0,.68-.03.97-.06.53-.05.97-.1,1.21.13.13.11.19.4.19.71Z"/>
  <path class="st0" d="M74.29,11.37c-.1.61-.39.79-.72,1.02-.44.26-1.05.43-1.68.43-4.72,0-4.74-3.8-4.66-4.75.02-.23.02-.44.02-.66v-3.13c-.02-.23-.06-.42-.13-.58-.27-.63-.4-.9-.21-1.43.13-.35.37-.52.64-.58.56-.15,1.1.21,1.37.73.16.31.27.68.32,1.05.11.95.08,2.32.08,2.32v2.82s-.1,2.11,2.22,2.14c.63.02.82-.03,1.16-.19.13-.05.77-.43,1.35.11.23.21.27.45.23.71ZM76.19,1.63c.4,0,1.02.5,1.02,1.42v7.54c0,.61.31.95.11,1.66-.11.47-.72.56-.95.56-.68,0-1.22-.58-1.22-2.03V2.92c0-.69.39-1.29.97-1.29h.08Z"/>
  <path class="st0" d="M82.11,1.68c.6,0,1.08.48,1.08,1.06v8.27c0,1.08-.55,1.98-1.24,1.98-.42-.03-.82-.35-.93-.68-.24-.69.16-1.68.16-2.3V2.88c0-.73.34-1.19.76-1.19h.18ZM91.45,11.8c.05.18.05.35-.03.5-.15.29-.5.55-.84.61-.55.11-.97-.08-1.14-.18-1.3-.72-2.5-2.19-3.03-4.58-2.26,0-2.45-.69-2.45-.93,0-.44.35-.79.77-.79h2.13c1.03,0,1.85-.61,1.85-1.39,0-1.05-.81-1.55-2.5-1.55h-1.08c-.69,0-1.26-.56-1.26-1.26,0-.34.29-.61.63-.61h1.37c3.62,0,4.54,1.6,4.67,2.95.08.92-.21,1.8-.84,2.5-.4.45-.93.76-1.5.93.31.87,1.05,2.38,2.59,3.14.32.16.55.4.64.64Z"/>
  <path class="st0" d="M95.28,1.57c.6,0,.98.6.98,1.29v7.94c0,1.47-.56,2.05-1.24,2.05-.23,0-.77-.16-.9-.63-.18-.72.13-1.06.13-1.68V2.94c0-.93.55-1.37.95-1.37h.08ZM103.79,1.8c.15.13.21.34.21.63v.15c0,.5-.39,1-1.26,1h-4.43c-.63,0-1.22-.56-1.22-1.16,0-.37.32-.66.71-.66h3.85c.34,0,.66-.03.95-.06.53-.06.95-.1,1.19.11ZM98.23,8.02c-.63,0-1.14-.48-1.14-1.08,0-.37.37-.74.95-.74h3.53c.35,0,.66-.03.95-.06.5-.05.85-.1,1.08.11.13.11.19.32.19.63v.15c0,.5-.43,1-.98,1h-4.58ZM103.76,10.74c.16.15.24.39.24.77v.16c0,.53-.44.98-.98.98h-4.79c-.63,0-1.14-.52-1.14-1.16,0-.39.27-.76.66-.76h3.85c.39,0,.77-.02,1.08-.06.47-.08.85-.13,1.08.06Z"/>
</svg>