<?xml version="1.0" encoding="UTF-8"?>
<svg id="Layer_1" xmlns="http://www.w3.org/2000/svg" version="1.1" viewBox="0 0 74 20">
  <!-- Generator: Adobe Illustrator 30.3.0, SVG Export Plug-In . SVG Version: 2.1.3 Build 182)  -->
  <defs>
    <style>
      .st0 {
        fill: #fff;
      }
    </style>
  </defs>
  <g>
    <path class="st0" d="M.49,7.98v-.19c.08-1.11,0-1.68.89-2.85,0,0,.63-.79,1.42-.53.66.21.72,1.03.21,1.39-.5.34-.93.72-.93,2.3,0,.5-.47,1.32-.47,1.85,0,.35.47,1.01.47,1.48,0,1.19.15,1.47.31,1.87.26.63.27.53.72.97.68.68-.03,1.72-1.1,1.21,0,0-.97-.45-1.39-2.03-.1-.34-.19-1.22-.19-1.77,0-.52-.13-.97-.21-1.11-.37-.6-.19-1.14,0-1.4.26-.34.27-.98.27-1.18Z"/>
    <path class="st0" d="M6.86,7.98v-.19c.08-1.11,0-1.68.89-2.85,0,0,.63-.79,1.42-.53.66.21.72,1.03.21,1.39-.5.34-.93.72-.93,2.3,0,.5-.47,1.32-.47,1.85,0,.35.47,1.01.47,1.48,0,1.19.15,1.47.31,1.87.26.63.27.53.72.97.68.68-.03,1.72-1.1,1.21,0,0-.97-.45-1.39-2.03-.1-.34-.19-1.22-.19-1.77,0-.52-.13-.97-.21-1.11-.37-.6-.19-1.14,0-1.4.26-.34.27-.98.27-1.18Z"/>
    <path class="st0" d="M13.22,7.98v-.19c.08-1.11,0-1.68.89-2.85,0,0,.63-.79,1.42-.53.66.21.72,1.03.21,1.39-.5.34-.93.72-.93,2.3,0,.5-.47,1.32-.47,1.85,0,.35.47,1.01.47,1.48,0,1.19.15,1.47.31,1.87.26.63.27.53.72.97.68.68-.03,1.72-1.1,1.21,0,0-.97-.45-1.39-2.03-.1-.34-.19-1.22-.19-1.77,0-.52-.13-.97-.21-1.11-.37-.6-.19-1.14,0-1.4.26-.34.27-.98.27-1.18Z"/>
  </g>
  <path class="st0" d="M25.2,4.3c.6,0,.97.6.97,1.27v7.85c0,1.43-.55,2.01-1.22,2.01-.23,0-.76-.15-.89-.63-.18-.69.13-1.05.13-1.64v-7.51c0-.92.53-1.35.93-1.35h.08ZM32.79,14.37c-1.05,1.21-3.24,1.06-3.24,1.06-2.22,0-2.63-.44-2.61-.92-.06-.71.53-.98.95-.98h1.85c.23,0,.47-.02.69-.08.97-.24,1.39-.69,1.39-1.35,0-1.03-.9-1.61-2.56-1.61h-.71c-.48,0-.89-.19-1.1-.55-.13-.16-.13-.31-.13-.4,0-.05-.02-.11,0-.16,0-.27.19-.5.47-.56.08-.03.19-.06.31-.06h1.89c.76.05,1.47-.61,1.47-1.37,0-1.03-.95-1.31-2.09-1.24h-1.08c-.68,0-1.22-.55-1.22-1.22,0-.34.27-.61.61-.61h1.35c3.58,0,4.22,1.58,4.24,2.9.03,1.14-.39,1.87-.93,2.35.89.56,1.22,1.35,1.29,2.08.1.92-.19,2.06-.82,2.74Z"/>
  <path class="st0" d="M47.91,14.7c.11.18.11.4.02.58-.11.19-.31.31-.52.31h-.42c-.69,0-1.3-.39-1.59-1-.23-.43-.48-.98-.79-1.66h-2.11c-.64,0-1.45-.16-1.22-1.05.11-.43.64-.69,1.19-.69h1.39c-.47-1.1-1.05-2.63-1.64-4.17-.02-.05-.05-.05-.06,0-1.43,3.75-2.48,6.25-3.13,7.57-.31.61-.92,1-1.61,1h-.4c-.23,0-.42-.11-.53-.31-.1-.19-.1-.4.02-.6,1.76-2.8,3.92-8.12,4.53-9.68.14-.34.52-.58,1.06-.58h.13c.63,0,1.03.24,1.18.58.61,1.56,2.77,6.88,4.53,9.7Z"/>
  <path class="st0" d="M59.75,12.84c.26.31.32.55.27.87-.05.35-.31.69-.76.98-.97.66-2.13,1-3.32,1-3.22,0-5.87-2.53-5.87-5.64s2.64-5.64,5.87-5.64c1.22,0,1.77.21,2.64.58.08.03.18.03.27.05.16.02.35.03.53.15.18.1.29.27.32.5.05.35-.05.71-.31,1.01-.35.4-.81.31-1.19.1-.64-.37-1.27-.63-2.16-.63-1.13,0-2.14.44-2.87,1.16-.71.72-1.08,1.71-1.06,2.79.02.94.42,1.9,1.16,2.61.74.69,1.71,1.1,2.67,1.1h.13c.87-.03,1.69-.37,2.34-.97.29-.26.5-.37.69-.37h.03c.18.02.4.13.6.35Z"/>
  <path class="st0" d="M64.87,4.4c.6,0,.97.6.97,1.27v7.83c0,1.43-.55,2.01-1.22,2.01-.23,0-.76-.14-.89-.63-.18-.69.13-1.03.13-1.64v-7.51c0-.92.53-1.34.93-1.34h.08ZM72.25,15.53s-.06,0-.1-.02h-.02c-.32-.03-.52-.14-.63-.21-1.14-.61-3.4-3.05-4.03-4.85-.34.03-.66-.08-.85-.31-.24-.29-.31-.89.23-1.32l3.03-2.61c.32-.26.56-.5.79-.74.42-.42.69-1.08,1.35-1.08.58,0,.74.58.74.58.19.63.05,1.31-.44,1.71l-3.4,2.88c1.14,1.96,2.37,3.09,3.69,3.83.05.03.23.11.44.11.24,0,.76.21.92.76.16.53-.32,1.4-1.72,1.26Z"/>
</svg>