<?xml version="1.0" encoding="UTF-8"?>
<svg id="Layer_1" xmlns="http://www.w3.org/2000/svg" version="1.1" viewBox="0 0 100 20">
  <!-- Generator: Adobe Illustrator 30.3.0, SVG Export Plug-In . SVG Version: 2.1.3 Build 182)  -->
  <defs>
    <style>
      .st0 {
        fill: #fff;
      }
    </style>
  </defs>
  <path class="st0" d="M.49,7.9v-.19c.08-1.11,0-1.68.89-2.85,0,0,.63-.79,1.42-.53.66.21.73,1.03.21,1.39-.5.34-.93.73-.93,2.3,0,.5-.47,1.32-.47,1.85,0,.35.47,1.02.47,1.48,0,1.19.15,1.47.31,1.87.26.63.27.53.73.97.68.68-.03,1.72-1.1,1.21,0,0-.97-.45-1.39-2.03-.1-.34-.19-1.22-.19-1.77,0-.52-.13-.97-.21-1.11-.37-.6-.19-1.14,0-1.4.26-.34.27-.98.27-1.18Z"/>
  <path class="st0" d="M6.86,7.9v-.19c.08-1.11,0-1.68.89-2.85,0,0,.63-.79,1.42-.53.66.21.73,1.03.21,1.39-.5.34-.93.73-.93,2.3,0,.5-.47,1.32-.47,1.85,0,.35.47,1.02.47,1.48,0,1.19.15,1.47.31,1.87.26.63.27.53.73.97.68.68-.03,1.72-1.1,1.21,0,0-.97-.45-1.39-2.03-.1-.34-.19-1.22-.19-1.77,0-.52-.13-.97-.21-1.11-.37-.6-.19-1.14,0-1.4.26-.34.27-.98.27-1.18Z"/>
  <path class="st0" d="M13.22,7.9v-.19c.08-1.11,0-1.68.89-2.85,0,0,.63-.79,1.42-.53.66.21.73,1.03.21,1.39-.5.34-.93.73-.93,2.3,0,.5-.47,1.32-.47,1.85,0,.35.47,1.02.47,1.48,0,1.19.15,1.47.31,1.87.26.63.27.53.73.97.68.68-.03,1.72-1.1,1.21,0,0-.97-.45-1.39-2.03-.1-.34-.19-1.22-.19-1.77,0-.52-.13-.97-.21-1.11-.37-.6-.19-1.14,0-1.4.26-.34.27-.98.27-1.18Z"/>
  <path class="st0" d="M33,12.76c.26.31.32.55.27.87-.05.35-.31.69-.76.98-.97.66-2.13,1-3.32,1-3.22,0-5.87-2.53-5.87-5.64s2.64-5.64,5.87-5.64c1.22,0,1.77.21,2.64.58.08.03.18.03.27.05.16.02.35.03.53.14.18.1.29.27.32.5.05.35-.05.71-.31,1.02-.35.4-.81.31-1.19.1-.64-.37-1.27-.63-2.16-.63-1.13,0-2.14.43-2.87,1.16-.71.73-1.08,1.71-1.06,2.79.02.93.42,1.9,1.16,2.61.74.69,1.71,1.1,2.67,1.1h.13c.87-.03,1.69-.37,2.34-.97.29-.26.5-.37.69-.37h.03c.18.02.4.13.6.35Z"/>
  <path class="st0" d="M45.93,14.32v.13c0,.51-.38,1.01-1.25,1.01h-6.13c-.19,0-.4.03-.59.1-.11.03-.22.05-.34.05-.37,0-.83-.27-.94-.75-.19-.72.18-1.52.18-2.13v-6.96c0-.93.54-1.36.96-1.36h.08c.59,0,.96.61.96,1.3v7.86h4.34c.35,0,1.07-.21,1.36-.26.62-.14.99.03,1.17.3.11.16.21.42.21.72Z"/>
  <path class="st0" d="M59.66,9.93c0,3.09-2.61,5.61-5.83,5.61s-5.83-2.51-5.83-5.61,2.61-5.67,5.83-5.67c1.16,0,2.24.34,3.16.92,1.61,1.02,2.67,2.77,2.67,4.75ZM53.83,6.11c-2.19,0-3.98,1.69-3.98,3.77s1.79,3.77,3.98,3.77,3.98-1.69,3.98-3.77c0-1.48-.92-2.77-2.22-3.38-.53-.24-1.13-.39-1.76-.39Z"/>
  <path class="st0" d="M72.14,6.66c-.1.23-.32.63-.82.58-.31-.02-.73-.08-1.13-.34-.63-.42-2.48-.92-4.16-.47-.84.22-1.1.79-.92,1.35.18.52,1.02.76,2.19.82,4.56.26,5.38,2.47,5.16,4.17-.16,1.22-1.45,2.85-4.5,2.95-2.16.06-4.21-.66-5.19-2.53,0,0-.4-1.13.68-1.48.53-.16.82.29,1.29.92.63.87,2.21,1.14,3,1.14,2.93,0,2.85-1.63,2.64-2.08-.47-.95-1.76-1.08-2.5-1.14-1.45-.13-2.93-.03-4.03-.95-.69-.6-.85-1.32-.84-2.06.02-1.13.81-2.4,2.55-2.88,1.18-.34,3.45-.6,5.4.5,0,0,1.82-.08,1.18,1.5Z"/>
  <path class="st0" d="M77.28,4.32c.6,0,.98.6.98,1.29v7.94c0,1.47-.56,2.05-1.24,2.05-.23,0-.77-.16-.9-.63-.18-.72.13-1.06.13-1.68v-7.61c0-.93.55-1.37.95-1.37h.08ZM85.79,4.55c.14.13.21.34.21.63v.15c0,.5-.39,1-1.26,1h-4.43c-.63,0-1.22-.56-1.22-1.16,0-.37.32-.66.71-.66h3.85c.34,0,.66-.03.95-.06.53-.06.95-.1,1.19.11ZM80.23,10.77c-.63,0-1.14-.48-1.14-1.08,0-.37.37-.74.95-.74h3.53c.35,0,.66-.03.95-.06.5-.05.85-.1,1.08.11.13.11.19.32.19.63v.15c0,.5-.44,1-.98,1h-4.58ZM85.76,13.49c.16.15.24.39.24.77v.16c0,.53-.44.98-.98.98h-4.79c-.63,0-1.14-.52-1.14-1.16,0-.39.27-.76.66-.76h3.85c.39,0,.77-.02,1.08-.06.47-.08.85-.13,1.08.06Z"/>
  <path class="st0" d="M90.62,4.43c.6,0,1.08.48,1.08,1.06v8.27c0,1.08-.55,1.98-1.24,1.98-.42-.03-.82-.35-.94-.68-.24-.69.16-1.68.16-2.3v-7.14c0-.72.34-1.19.76-1.19h.18ZM99.97,14.55c.05.18.05.35-.03.5-.15.29-.5.55-.84.61-.55.11-.97-.08-1.14-.18-1.3-.72-2.5-2.19-3.03-4.58-2.26,0-2.45-.69-2.45-.93,0-.44.35-.79.77-.79h2.13c1.03,0,1.85-.61,1.85-1.39,0-1.05-.81-1.55-2.5-1.55h-1.08c-.69,0-1.26-.56-1.26-1.26,0-.34.29-.61.63-.61h1.37c3.62,0,4.54,1.6,4.67,2.95.08.92-.21,1.8-.84,2.5-.4.45-.93.76-1.5.93.31.87,1.05,2.38,2.59,3.14.32.16.55.4.64.64Z"/>
</svg>