<?xml version="1.0" encoding="UTF-8"?>
<svg id="Layer_1" xmlns="http://www.w3.org/2000/svg" version="1.1" viewBox="0 0 115 20">
  <!-- Generator: Adobe Illustrator 30.3.0, SVG Export Plug-In . SVG Version: 2.1.3 Build 182)  -->
  <defs>
    <style>
      .st0 {
        fill: #fff;
      }
    </style>
  </defs>
  <path class="st0" d="M1.22,4.29c.6,0,.98.6.98,1.29v7.95c0,1.47-.56,2.05-1.24,2.05-.23,0-.77-.16-.9-.63-.18-.73.13-1.06.13-1.68v-7.61c0-.93.55-1.37.95-1.37h.08ZM9.73,4.51c.14.13.21.34.21.63v.15c0,.5-.39,1-1.26,1h-4.43c-.63,0-1.23-.56-1.23-1.16,0-.37.32-.66.71-.66h3.85c.34,0,.66-.03.95-.06.53-.06.95-.1,1.19.11ZM9.25,9.09c.16.13.24.39.24.77v.16c0,.53-.35.89-.9.89h-4.34c-.63,0-1.23-.42-1.23-1.06,0-.39.27-.76.66-.76h3.4c.37,0,.77-.02,1.08-.06.47-.08.84-.15,1.08.06Z"/>
  <path class="st0" d="M20.37,14.12c-.1.61-.39.79-.73,1.02-.44.26-1.05.44-1.68.44-4.72,0-4.74-3.81-4.66-4.76.02-.23.02-.44.02-.66v-3.13c-.02-.23-.06-.42-.13-.58-.27-.63-.4-.9-.21-1.44.13-.35.37-.52.64-.58.56-.15,1.1.21,1.37.73.16.31.27.68.32,1.05.11.95.08,2.32.08,2.32v2.82s-.1,2.11,2.22,2.14c.63.02.82-.03,1.16-.19.13-.05.77-.44,1.35.11.23.21.27.45.23.71ZM22.27,4.38c.4,0,1.02.5,1.02,1.42v7.55c0,.61.31.95.11,1.66-.11.47-.73.56-.95.56-.68,0-1.23-.58-1.23-2.03v-7.87c0-.69.39-1.29.97-1.29h.08Z"/>
  <path class="st0" d="M28.41,4.43c.6,0,1.08.48,1.08,1.06v8.27c0,1.08-.55,1.98-1.24,1.98-.42-.03-.82-.35-.94-.68-.24-.69.16-1.68.16-2.31v-7.14c0-.73.34-1.19.76-1.19h.18ZM37.76,14.56c.05.18.05.35-.03.5-.15.29-.5.55-.84.61-.55.11-.97-.08-1.14-.18-1.31-.73-2.5-2.19-3.03-4.58-2.26,0-2.45-.69-2.45-.94,0-.44.35-.79.77-.79h2.13c1.03,0,1.85-.61,1.85-1.39,0-1.05-.81-1.55-2.5-1.55h-1.08c-.69,0-1.26-.56-1.26-1.26,0-.34.29-.61.63-.61h1.37c3.63,0,4.55,1.6,4.68,2.95.08.92-.21,1.81-.84,2.5-.4.45-.93.76-1.5.94.31.87,1.05,2.39,2.6,3.14.32.16.55.4.64.64Z"/>
  <path class="st0" d="M50.63,5.2v.13c0,.52-.39,1.02-1.26,1.02h-2.97v7.37c0,1.47-.55,2.06-1.24,2.06-.23,0-.77-.16-.9-.64-.18-.71.13-1.06.13-1.68v-7.11h-3.02c-.64,0-1.24-.58-1.24-1.16,0-.37.32-.76.73-.76h7.4c.35,0,.68-.03.97-.06.53-.05.97-.1,1.21.13.13.11.19.4.19.71Z"/>
  <path class="st0" d="M54.56,4.3c.98,0,.98,1.14.98,1.84v7.4c0,1.47-.56,2.05-1.24,2.05-.23,0-.77-.16-.89-.63-.19-.73.11-1.06.11-1.68v-7.61c0-.93.55-1.37.97-1.37h.06ZM60.97,8.95c.15.11.21.4.21.69v.14c0,.5-.39,1-1.26,1h-2.32c-.64,0-1.24-.56-1.24-1.16,0-.35.32-.74.73-.74h1.73c.35,0,.68-.03.97-.06.53-.05.95-.1,1.19.13ZM63.05,4.3c.6,0,.98.31.98,1v8.24c0,1.47-.56,2.05-1.24,2.05-.23,0-.77-.16-.89-.63-.19-.73.11-1.06.11-1.68v-7.14c0-1.29.55-1.84.97-1.84h.06Z"/>
  <path class="st0" d="M68.92,4.32c.6,0,.98.6.98,1.29v7.95c0,1.47-.56,2.05-1.24,2.05-.23,0-.77-.16-.9-.63-.18-.73.13-1.06.13-1.68v-7.61c0-.94.55-1.37.95-1.37h.08ZM77.43,4.54c.15.13.21.34.21.63v.14c0,.5-.39,1-1.26,1h-4.43c-.63,0-1.23-.56-1.23-1.16,0-.37.32-.66.71-.66h3.85c.34,0,.66-.03.95-.06.53-.06.95-.1,1.19.11ZM71.87,10.77c-.63,0-1.15-.48-1.15-1.08,0-.37.37-.74.95-.74h3.53c.35,0,.66-.03.95-.06.5-.05.85-.1,1.08.11.13.11.19.32.19.63v.15c0,.5-.44,1-.98,1h-4.58ZM77.4,13.49c.16.15.24.39.24.77v.16c0,.53-.44.98-.98.98h-4.79c-.63,0-1.15-.52-1.15-1.16,0-.39.27-.76.66-.76h3.85c.39,0,.77-.02,1.08-.06.47-.08.85-.13,1.08.06Z"/>
  <path class="st0" d="M82.41,4.43c.6,0,1.08.48,1.08,1.06v8.27c0,1.08-.55,1.98-1.24,1.98-.42-.03-.82-.35-.94-.68-.24-.69.16-1.68.16-2.31v-7.14c0-.73.34-1.19.76-1.19h.18ZM91.76,14.56c.05.18.05.35-.03.5-.15.29-.5.55-.84.61-.55.11-.97-.08-1.15-.18-1.31-.73-2.5-2.19-3.03-4.58-2.26,0-2.45-.69-2.45-.94,0-.44.35-.79.77-.79h2.13c1.03,0,1.85-.61,1.85-1.39,0-1.05-.81-1.55-2.5-1.55h-1.08c-.69,0-1.26-.56-1.26-1.26,0-.34.29-.61.63-.61h1.37c3.63,0,4.55,1.6,4.68,2.95.08.92-.21,1.81-.84,2.5-.4.45-.93.76-1.5.94.31.87,1.05,2.39,2.6,3.14.32.16.55.4.64.64Z"/>
  <g>
    <path class="st0" d="M102.05,10.49c-.1.15-.21.6-.21,1.11,0,.56-.11,1.47-.19,1.79-.44,1.6-1.42,2.05-1.42,2.05-1.06.53-1.77-.53-1.1-1.21.45-.45.47-.34.73-.98.16-.4.31-.68.31-1.89,0-.47.48-1.13.48-1.5,0-.53-.47-1.37-.47-1.85,0-1.6-.45-2-.95-2.34-.52-.35-.45-1.18.21-1.4.81-.26,1.44.53,1.44.53.89,1.19.82,1.77.9,2.9v.18c0,.21.02.84.27,1.19.19.26.37.82,0,1.42Z"/>
    <path class="st0" d="M108.42,10.49c-.1.15-.21.6-.21,1.11,0,.56-.11,1.47-.19,1.79-.44,1.6-1.42,2.05-1.42,2.05-1.06.53-1.77-.53-1.1-1.21.45-.45.47-.34.73-.98.16-.4.31-.68.31-1.89,0-.47.48-1.13.48-1.5,0-.53-.47-1.37-.47-1.85,0-1.6-.45-2-.95-2.34-.52-.35-.45-1.18.21-1.4.81-.26,1.43.53,1.43.53.89,1.19.82,1.77.9,2.9v.18c0,.21.02.84.27,1.19.19.26.37.82,0,1.42Z"/>
    <path class="st0" d="M114.78,10.49c-.1.15-.21.6-.21,1.11,0,.56-.11,1.47-.19,1.79-.44,1.6-1.42,2.05-1.42,2.05-1.06.53-1.77-.53-1.1-1.21.45-.45.47-.34.73-.98.16-.4.31-.68.31-1.89,0-.47.48-1.13.48-1.5,0-.53-.47-1.37-.47-1.85,0-1.6-.45-2-.95-2.34-.52-.35-.45-1.18.21-1.4.81-.26,1.44.53,1.44.53.89,1.19.82,1.77.9,2.9v.18c0,.21.02.84.27,1.19.19.26.37.82,0,1.42Z"/>
  </g>
</svg>