<?xml version="1.0" encoding="UTF-8"?>
<svg id="Layer_1" xmlns="http://www.w3.org/2000/svg" version="1.1" viewBox="0 0 92 20">
  <!-- Generator: Adobe Illustrator 30.3.0, SVG Export Plug-In . SVG Version: 2.1.3 Build 182)  -->
  <defs>
    <style>
      .st0 {
        fill: #fff;
      }
    </style>
  </defs>
  <path class="st0" d="M8.64,3.56l-.05,4.03s.26,5.35-4.97,5c0,0-2.74-.06-3.53-2.29-.11-.34-.31-1.42.6-1.5.56-.05,1.06.61,1.24.97.21.47,1.03.85,1.58.92,3.05.34,3.11-2.77,3.1-3.35v-.1l.03-2.32c0-.53-.02-1.08-.06-1.61-.16-1.98,1.13-1.69,1.13-1.69,1.08.05.94,1.29.94,1.95Z"/>
  <path class="st0" d="M23.22,7.17c0,3.1-2.61,5.61-5.84,5.61s-5.84-2.52-5.84-5.61,2.61-5.68,5.84-5.68c1.16,0,2.24.34,3.16.92,1.61,1.02,2.68,2.77,2.68,4.76ZM17.39,3.35c-2.19,0-3.98,1.69-3.98,3.77s1.79,3.77,3.98,3.77,3.98-1.69,3.98-3.77c0-1.48-.92-2.77-2.22-3.39-.53-.24-1.13-.39-1.76-.39Z"/>
  <path class="st0" d="M33.57,11.37c-.1.61-.39.79-.73,1.02-.44.26-1.05.44-1.68.44-4.72,0-4.74-3.81-4.66-4.76.02-.23.02-.44.02-.66v-3.13c-.02-.23-.06-.42-.13-.58-.27-.63-.4-.9-.21-1.44.13-.35.37-.52.64-.58.56-.15,1.1.21,1.37.73.16.31.27.68.32,1.05.11.95.08,2.32.08,2.32v2.82s-.1,2.11,2.22,2.14c.63.02.82-.03,1.16-.19.13-.05.77-.44,1.35.11.23.21.27.45.23.71ZM35.47,1.63c.4,0,1.02.5,1.02,1.42v7.55c0,.61.31.95.11,1.66-.11.47-.73.56-.95.56-.68,0-1.23-.58-1.23-2.03V2.92c0-.69.39-1.29.97-1.29h.08Z"/>
  <path class="st0" d="M41.67,1.68c.6,0,1.08.48,1.08,1.06v8.27c0,1.08-.55,1.98-1.24,1.98-.42-.03-.82-.35-.94-.68-.24-.69.16-1.68.16-2.31V2.87c0-.73.34-1.19.76-1.19h.18ZM51.02,11.8c.05.18.05.35-.03.5-.15.29-.5.55-.84.61-.55.11-.97-.08-1.15-.18-1.31-.73-2.5-2.19-3.03-4.58-2.26,0-2.45-.69-2.45-.94,0-.44.35-.79.77-.79h2.13c1.03,0,1.85-.61,1.85-1.39,0-1.05-.81-1.55-2.5-1.55h-1.08c-.69,0-1.26-.56-1.26-1.26,0-.34.29-.61.63-.61h1.37c3.63,0,4.55,1.6,4.68,2.95.08.92-.21,1.81-.84,2.5-.4.45-.93.76-1.5.94.31.87,1.05,2.39,2.6,3.14.32.16.55.4.64.64Z"/>
  <path class="st0" d="M56.23,1.87c.15.15.24.35.24.58v9.29c0,.68-.55,1.23-1.23,1.23-.44,0-.73-.21-.81-.4-.24-.53-.16-.92-.06-1.37.06-.27.13-.6.13-.98V2.98c0-.68.5-1.26,1.16-1.31h.08c.18,0,.34.06.48.19ZM60.62,6.96s1.58,2.03,1.9,2.64c.1.21.06.58.06.81v.53s.02,1.18-.71.64c-.73-.55-4.32-6-4.32-6,0,0-.35-.48-.37-.79-.02-.39-.03-1.18.03-1.53.15-.68.53-.55.87.03l2.53,3.66ZM65.24,2.98v8.66c0,.85-.45,1.32-.76,1.32h-.05c-.53,0-1.24-.02-1.32-.77-.05-.47,0-.73.06-.98.03-.21.08-.45.08-.85V2.45c0-.4.23-.6.4-.68.19-.1.39-.1.4-.1.79,0,1.18.44,1.18,1.31Z"/>
  <path class="st0" d="M79.67,11.87c.11.18.11.4.02.58-.11.19-.31.31-.52.31h-.42c-.69,0-1.31-.39-1.6-1-.23-.44-.48-.98-.79-1.66h-2.11c-.64,0-1.45-.16-1.23-1.05.11-.44.64-.69,1.19-.69h1.39c-.47-1.1-1.05-2.63-1.64-4.18-.02-.05-.05-.05-.06,0-1.44,3.76-2.48,6.26-3.13,7.58-.31.61-.92,1-1.61,1h-.4c-.23,0-.42-.11-.53-.31-.1-.19-.1-.4.02-.6,1.76-2.81,3.92-8.13,4.53-9.69.15-.34.52-.58,1.06-.58h.13c.63,0,1.03.24,1.18.58.61,1.56,2.77,6.88,4.53,9.71Z"/>
  <path class="st0" d="M92,11.64v.13c0,.52-.39,1.02-1.26,1.02h-6.17c-.19,0-.4.03-.6.1-.11.03-.23.05-.34.05-.37,0-.84-.27-.95-.76-.19-.73.18-1.53.18-2.14V3.02c0-.94.55-1.37.97-1.37h.08c.6,0,.97.61.97,1.31v7.92h4.37c.35,0,1.08-.21,1.37-.26.63-.15,1,.03,1.18.31.11.16.21.42.21.73Z"/>
</svg>