<?xml version="1.0" encoding="UTF-8"?>
<svg id="Layer_1" xmlns="http://www.w3.org/2000/svg" version="1.1" viewBox="0 0 71 20">
  <!-- Generator: Adobe Illustrator 30.3.0, SVG Export Plug-In . SVG Version: 2.1.3 Build 182)  -->
  <defs>
    <style>
      .st0 {
        fill: #fff;
      }
    </style>
  </defs>
  <path class="st0" d="M1.2,1.55c.6,0,.97.6.97,1.27v7.83c0,1.43-.55,2.01-1.22,2.01-.23,0-.76-.15-.89-.63-.18-.69.13-1.03.13-1.64V2.89c0-.92.53-1.34.93-1.34h.08ZM8.58,12.68s-.06,0-.1-.02h-.02c-.32-.03-.52-.15-.63-.21-1.14-.61-3.4-3.05-4.03-4.85-.34.03-.66-.08-.85-.31-.24-.29-.31-.89.23-1.32l3.03-2.61c.32-.26.56-.5.79-.74.42-.42.69-1.08,1.35-1.08.58,0,.74.58.74.58.19.63.05,1.31-.44,1.71l-3.4,2.88c1.14,1.97,2.37,3.09,3.69,3.83.05.03.23.11.44.11.24,0,.76.21.92.76.16.53-.32,1.4-1.72,1.26Z"/>
  <path class="st0" d="M15.24,1.86c.15.15.24.35.24.58v9.28c0,.68-.55,1.23-1.22,1.23-.44,0-.73-.21-.81-.4-.24-.53-.16-.92-.06-1.37.06-.27.13-.6.13-.98V2.97c0-.68.5-1.26,1.16-1.31h.08c.18,0,.34.06.48.19ZM19.62,6.95s1.58,2.03,1.9,2.64c.1.21.06.58.06.81v.53s.02,1.18-.71.64c-.73-.55-4.32-5.99-4.32-5.99,0,0-.35-.48-.37-.79-.02-.39-.03-1.18.03-1.53.15-.68.53-.55.87.03l2.53,3.66ZM24.25,2.97v8.65c0,.85-.45,1.32-.76,1.32h-.05c-.53,0-1.24-.02-1.32-.77-.05-.47,0-.73.06-.98.03-.21.08-.45.08-.85V2.44c0-.4.23-.6.4-.68.19-.1.39-.1.4-.1.79,0,1.18.44,1.18,1.31Z"/>
  <path class="st0" d="M39.14,7.16c0,3.09-2.61,5.61-5.83,5.61s-5.83-2.51-5.83-5.61,2.61-5.67,5.83-5.67c1.16,0,2.24.34,3.16.92,1.61,1.02,2.67,2.77,2.67,4.75ZM33.31,3.34c-2.19,0-3.98,1.69-3.98,3.77s1.79,3.77,3.98,3.77,3.98-1.69,3.98-3.77c0-1.48-.92-2.77-2.22-3.38-.53-.24-1.13-.39-1.76-.39Z"/>
  <path class="st0" d="M51.73,9.99c.26.31.32.55.27.87-.05.35-.31.69-.76.98-.97.66-2.13,1-3.32,1-3.22,0-5.87-2.53-5.87-5.64s2.64-5.64,5.87-5.64c1.22,0,1.77.21,2.64.58.08.03.18.03.27.05.16.02.36.03.53.15.18.1.29.27.32.5.05.35-.05.71-.31,1.02-.36.4-.81.31-1.19.1-.64-.37-1.27-.63-2.16-.63-1.13,0-2.14.44-2.87,1.16-.71.73-1.08,1.71-1.06,2.79.02.93.42,1.9,1.16,2.61.74.69,1.71,1.1,2.67,1.1h.13c.87-.03,1.69-.37,2.34-.97.29-.26.5-.37.69-.37h.03c.18.02.4.13.6.35Z"/>
  <path class="st0" d="M56.17,1.55c.6,0,.97.6.97,1.27v7.83c0,1.43-.55,2.01-1.22,2.01-.22,0-.76-.15-.89-.63-.18-.69.13-1.03.13-1.64V2.89c0-.92.53-1.34.93-1.34h.08ZM63.55,12.68s-.06,0-.1-.02h-.02c-.32-.03-.52-.15-.63-.21-1.14-.61-3.4-3.05-4.03-4.85-.34.03-.66-.08-.85-.31-.24-.29-.31-.89.23-1.32l3.03-2.61c.32-.26.56-.5.79-.74.42-.42.69-1.08,1.35-1.08.58,0,.74.58.74.58.19.63.05,1.31-.44,1.71l-3.4,2.88c1.14,1.97,2.37,3.09,3.69,3.83.05.03.23.11.43.11.24,0,.76.21.92.76.16.53-.32,1.4-1.72,1.26Z"/>
  <path class="st0" d="M70.94,8.28c0,1.24-.61,1.68-1.14,1.68-.19,0-.66-.13-.76-.55-.1-.35-.03-.6.02-.84.03-.16.08-.31.08-.48V2.55c0-.74.42-1.14.81-1.14h.16c.47,0,.84.47.84,1.08v5.8ZM69.97,13.01c-.68-.02-.93-.42-.93-.94s.5-1.05,1.01-1.02c.66.03.95.5.95,1.02s-.52.95-1.03.94Z"/>
</svg>