<?xml version="1.0" encoding="UTF-8"?>
<svg id="Layer_1" xmlns="http://www.w3.org/2000/svg" version="1.1" viewBox="0 0 97 20">
  <!-- Generator: Adobe Illustrator 30.3.0, SVG Export Plug-In . SVG Version: 2.1.3 Build 182)  -->
  <defs>
    <style>
      .st0 {
        fill: #fff;
      }
    </style>
  </defs>
  <path class="st0" d="M1.95,1.79c.15.15.24.36.24.58v9.28c0,.68-.55,1.22-1.22,1.22-.44,0-.73-.21-.81-.4-.24-.53-.16-.92-.06-1.37.06-.27.13-.6.13-.98V2.9c0-.68.5-1.26,1.16-1.31h.08c.18,0,.34.06.48.19ZM9.23,4.53c-.02.79-.24,1.03-.98,1.88l-1.27,1.47c-.23.24-.53.39-.85.39-.34,0-.64-.15-.85-.39l-1.27-1.47c-.74-.85-.98-1.21-1.02-1.84,0-.16-.03-1.48.18-1.66.13-.1.32-.08.55.21l2.32,2.85c.05.06.15.06.19,0l2.3-2.85c.29-.42.55-.44.64-.31.1.16.08,1.56.06,1.71ZM12.02,2.9v8.65c0,.85-.44,1.32-.74,1.32h-.05c-.55,0-1.26-.02-1.34-.77-.03-.47.02-.72.06-.98.05-.21.1-.45.1-.85V2.37c0-.4.21-.6.4-.68.18-.1.37-.1.39-.1.79,0,1.18.44,1.18,1.31Z"/>
  <path class="st0" d="M27.22,7.19c0,3.09-2.61,5.61-5.83,5.61s-5.83-2.51-5.83-5.61,2.61-5.67,5.83-5.67c1.16,0,2.24.34,3.16.92,1.61,1.02,2.67,2.77,2.67,4.75ZM21.39,3.37c-2.19,0-3.98,1.69-3.98,3.77s1.79,3.77,3.98,3.77,3.98-1.69,3.98-3.77c0-1.48-.92-2.77-2.22-3.38-.53-.24-1.13-.39-1.76-.39Z"/>
  <path class="st0" d="M32.42,1.89c.14.14.24.35.24.58v9.28c0,.68-.55,1.22-1.22,1.22-.43,0-.73-.21-.81-.4-.24-.53-.16-.92-.06-1.37.06-.27.13-.6.13-.98V3c0-.68.5-1.26,1.16-1.3h.08c.18,0,.34.06.48.19ZM36.8,6.98s1.58,2.03,1.9,2.64c.1.21.06.58.06.8v.53s.02,1.18-.71.64c-.72-.55-4.32-5.99-4.32-5.99,0,0-.35-.48-.37-.79-.02-.39-.03-1.18.03-1.53.14-.68.53-.55.87.03l2.53,3.66ZM41.42,3v8.65c0,.85-.45,1.32-.76,1.32h-.05c-.53,0-1.24-.02-1.32-.77-.05-.47,0-.73.06-.98.03-.21.08-.45.08-.85V2.47c0-.4.22-.6.4-.68.19-.1.39-.1.4-.1.79,0,1.18.43,1.18,1.3Z"/>
  <path class="st0" d="M56.56,7.19c0,3.09-2.61,5.61-5.83,5.61s-5.83-2.51-5.83-5.61,2.61-5.67,5.83-5.67c1.16,0,2.24.34,3.16.92,1.61,1.02,2.67,2.77,2.67,4.75ZM50.72,3.37c-2.19,0-3.98,1.69-3.98,3.77s1.79,3.77,3.98,3.77,3.98-1.69,3.98-3.77c0-1.48-.92-2.77-2.22-3.38-.53-.24-1.13-.39-1.76-.39Z"/>
  <path class="st0" d="M69.18,11.65v.13c0,.52-.39,1.02-1.26,1.02h-6.17c-.19,0-.4.03-.6.1-.11.03-.23.05-.34.05-.37,0-.84-.27-.95-.76-.19-.73.18-1.53.18-2.14V3.03c0-.93.55-1.37.97-1.37h.08c.6,0,.97.61.97,1.31v7.91h4.37c.36,0,1.08-.21,1.37-.26.63-.14,1,.03,1.18.31.11.16.21.42.21.72Z"/>
  <path class="st0" d="M82.77,7.19c0,3.09-2.61,5.61-5.83,5.61s-5.83-2.51-5.83-5.61,2.61-5.67,5.83-5.67c1.16,0,2.24.34,3.16.92,1.61,1.02,2.67,2.77,2.67,4.75ZM76.93,3.37c-2.19,0-3.98,1.69-3.98,3.77s1.79,3.77,3.98,3.77,3.98-1.69,3.98-3.77c0-1.48-.92-2.77-2.22-3.38-.53-.24-1.13-.39-1.76-.39Z"/>
  <path class="st0" d="M97,6.9v.05c0,.32-.18.64-.45.82-.16.1-.24.27-.24.45-.08,1.58-.95,4.58-4.85,4.58s-5.87-2.53-5.87-5.64,2.63-5.64,5.87-5.64c1.21,0,1.76.21,2.63.58.08.03.18.03.27.05.16.02.36.03.53.14.18.1.29.27.32.5.05.35-.03.71-.31,1.01-.36.4-.79.31-1.18.1-.66-.37-1.27-.63-2.16-.63-1.14,0-2.16.44-2.87,1.16-.71.73-1.1,1.71-1.08,2.79.02.93.45,3.72,3.83,3.71.05,0,2.93.05,2.88-3h-2.26c-.63,0-1.13-.48-1.13-1.06,0-.35.35-.64.93-.64h2.9c.35,0,.68-.03.95-.06.48-.06.84-.1,1.06.1.13.13.19.32.19.64Z"/>
</svg>