<?xml version="1.0" encoding="UTF-8"?>
<svg id="Layer_1" xmlns="http://www.w3.org/2000/svg" version="1.1" viewBox="0 0 73 20">
  <!-- Generator: Adobe Illustrator 30.3.0, SVG Export Plug-In . SVG Version: 2.1.3 Build 182)  -->
  <defs>
    <style>
      .st0 {
        fill: #fff;
      }
    </style>
  </defs>
  <path class="st0" d="M10.49,2.47v.13c0,.52-.39,1.02-1.26,1.02h-2.96v7.36c0,1.47-.55,2.06-1.24,2.06-.23,0-.77-.16-.9-.64-.18-.71.13-1.06.13-1.68V3.61H1.24c-.64,0-1.24-.58-1.24-1.16,0-.37.32-.76.73-.76h7.4c.35,0,.68-.03.97-.06.53-.05.97-.1,1.21.13.13.11.19.4.19.71Z"/>
  <path class="st0" d="M14.83,1.56c.98,0,.98,1.14.98,1.84v7.4c0,1.47-.56,2.05-1.24,2.05-.23,0-.77-.16-.89-.63-.19-.73.11-1.06.11-1.68V2.93c0-.93.55-1.37.97-1.37h.06ZM21.24,6.2c.15.11.21.4.21.69v.14c0,.5-.39,1-1.26,1h-2.32c-.64,0-1.24-.56-1.24-1.16,0-.36.32-.74.73-.74h1.72c.35,0,.68-.03.97-.06.53-.05.95-.1,1.19.13ZM23.32,1.56c.6,0,.98.31.98,1v8.23c0,1.47-.56,2.05-1.24,2.05-.23,0-.77-.16-.89-.63-.19-.73.11-1.06.11-1.68V3.4c0-1.29.55-1.84.97-1.84h.06Z"/>
  <path class="st0" d="M29.6,1.5c.6,0,.97.6.97,1.29v7.94c0,1.47-.55,2.05-1.22,2.05-.23,0-.77-.16-.9-.63-.18-.73.13-1.06.13-1.68V2.87c0-.93.53-1.37.95-1.37h.08Z"/>
  <path class="st0" d="M36.85,1.89c.14.15.24.35.24.58v9.28c0,.68-.55,1.22-1.22,1.22-.43,0-.72-.21-.81-.4-.24-.53-.16-.92-.06-1.37.06-.27.13-.6.13-.98V3c0-.68.5-1.26,1.16-1.31h.08c.18,0,.34.06.48.19ZM41.23,6.98s1.58,2.03,1.9,2.64c.1.21.06.58.06.81v.53s.02,1.18-.71.64c-.73-.55-4.32-5.99-4.32-5.99,0,0-.35-.48-.37-.79-.02-.39-.03-1.18.03-1.53.15-.68.53-.55.87.03l2.53,3.66ZM45.86,3v8.65c0,.85-.45,1.32-.76,1.32h-.05c-.53,0-1.24-.02-1.32-.77-.05-.47,0-.72.06-.98.03-.21.08-.45.08-.85V2.47c0-.4.23-.6.4-.68.19-.1.39-.1.4-.1.79,0,1.18.44,1.18,1.31Z"/>
  <path class="st0" d="M60.43,6.9v.05c0,.32-.18.64-.45.82-.16.1-.24.27-.24.45-.08,1.58-.95,4.58-4.85,4.58s-5.86-2.53-5.86-5.64,2.63-5.64,5.86-5.64c1.21,0,1.76.21,2.63.58.08.03.18.03.27.05.16.02.36.03.53.15.18.1.29.27.32.5.05.35-.03.71-.31,1.02-.36.4-.79.31-1.18.1-.66-.37-1.27-.63-2.16-.63-1.14,0-2.16.44-2.87,1.16s-1.1,1.71-1.08,2.79c.02.93.45,3.72,3.83,3.71.05,0,2.93.05,2.88-3h-2.26c-.63,0-1.13-.48-1.13-1.06,0-.35.35-.64.93-.64h2.9c.35,0,.68-.03.95-.06.48-.06.84-.1,1.06.1.13.13.19.32.19.64Z"/>
  <path class="st0" d="M72.64,3.92c-.1.23-.32.63-.82.58-.31-.02-.72-.08-1.13-.34-.63-.42-2.48-.92-4.16-.47-.84.23-1.1.79-.92,1.35.18.52,1.02.76,2.19.82,4.56.26,5.38,2.46,5.16,4.17-.16,1.23-1.45,2.85-4.5,2.95-2.16.06-4.21-.66-5.19-2.53,0,0-.4-1.13.68-1.48.53-.16.82.29,1.29.92.63.87,2.21,1.14,3,1.14,2.93,0,2.85-1.63,2.64-2.08-.47-.95-1.76-1.08-2.5-1.14-1.45-.13-2.93-.03-4.03-.95-.69-.6-.85-1.32-.84-2.06.02-1.13.81-2.4,2.55-2.88,1.18-.34,3.45-.6,5.4.5,0,0,1.82-.08,1.18,1.5Z"/>
</svg>