<?xml version="1.0" encoding="UTF-8"?>
<svg xmlns="http://www.w3.org/2000/svg" version="1.1" viewBox="0 0 14 40">
  <!-- Generator: Adobe Illustrator 30.3.0, SVG Export Plug-In . SVG Version: 2.1.3 Build 182)  -->
  <defs>
    <style>
      .st0 {
        fill: #231f20;
      }

      .st1, .st2, .st3, .st4, .st5 {
        fill: #fff;
      }

      .st2, .st3, .st4, .st5 {
        font-family: Caveroom, Caveroom;
        font-size: 31px;
      }

      .st3, .st6 {
        letter-spacing: .08em;
      }

      .st4, .st7 {
        letter-spacing: .07em;
      }

      .st5, .st8 {
        letter-spacing: .09em;
      }

      .st9 {
        letter-spacing: .09em;
      }

      .st10 {
        letter-spacing: .09em;
      }

      .st11 {
        letter-spacing: .1em;
      }

      .st12 {
        letter-spacing: .1em;
      }

      .st13 {
        letter-spacing: .11em;
      }

      .st14 {
        letter-spacing: .09em;
      }

      .st15 {
        letter-spacing: .08em;
      }

      .st16 {
        letter-spacing: .08em;
      }

      .st17 {
        letter-spacing: .07em;
      }

      .st18 {
        letter-spacing: .07em;
      }

      .st19 {
        display: none;
      }

      .st20 {
        letter-spacing: .06em;
      }

      .st21 {
        letter-spacing: .05em;
      }

      .st22 {
        letter-spacing: .05em;
      }

      .st23 {
        letter-spacing: .01em;
      }
    </style>
  </defs>
  <g id="Layer_2" class="st19">
    <rect class="st0" x="-370.8" y="-68.57" width="838.52" height="891.94"/>
  </g>
  <g id="Layer_1">
    <path class="st1" d="M245.54,306.01c-.58.1-1.32.12-2.03.12h-119c-.74,0-1.25.68-1.25,1.42,0,1.18.96,2.15,2.15,2.15h123.14c1.55,0,2.68-.82,2.68-1.84v-.28c0-.74-.48-1.2-.82-1.42-1.41-.97-3.99-.3-4.87-.15Z"/>
    <path class="st1" d="M3.32,34.54c-.58.11-1.32.13-2.03.13h-122.03c-.74,0-1.25.76-1.25,1.58,0,1.32.96,2.39,2.15,2.39H6.32c1.55,0,2.68-.92,2.68-2.04v-.31c0-.82-.48-1.33-.82-1.58-1.41-1.08-3.99-.33-4.87-.17Z"/>
    <path class="st1" d="M-209.53,561.54c-.58.1-1.32.12-2.03.12h-130.34c-.74,0-1.25.68-1.25,1.42,0,1.18.96,2.15,2.15,2.15h134.48c1.55,0,2.68-.82,2.68-1.84v-.28c0-.74-.48-1.2-.82-1.42-1.41-.97-3.99-.3-4.87-.15Z"/>
    <path class="st1" d="M194.58,34.95c-.58.1-1.32.12-2.03.12H25.51c-.74,0-1.25.68-1.25,1.42,0,1.18.96,2.15,2.15,2.15h171.17c1.55,0,2.68-.82,2.68-1.84v-.28c0-.74-.48-1.2-.82-1.42-1.41-.97-3.99-.3-4.87-.15Z"/>
    <path class="st1" d="M-13.69,169.18c-.58.1-1.32.12-2.03.12h-88.03c-.74,0-1.25.68-1.25,1.42,0,1.18.96,2.15,2.15,2.15H-10.68c1.55,0,2.68-.82,2.68-1.84v-.28c0-.74-.48-1.2-.82-1.42-1.41-.97-3.99-.3-4.87-.15Z"/>
    <path class="st1" d="M190.57,169.18c-.58.1-1.32.12-2.03.12H25.51c-.74,0-1.25.68-1.25,1.42,0,1.18.96,2.15,2.15,2.15h167.17c1.55,0,2.68-.82,2.68-1.84v-.28c0-.74-.48-1.2-.82-1.42-1.41-.97-3.99-.3-4.87-.15Z"/>
    <text class="st2" transform="translate(-344.66 493.46)"><tspan class="st6" x="0" y="0">k</tspan><tspan class="st15" x="25.58" y="0">n</tspan><tspan class="st6" x="52.85" y="0">ock!</tspan></text>
    <path class="st1" d="M69.82,430.53c-.58.1-1.32.12-2.03.12H-109.25c-.74,0-1.25.68-1.25,1.42,0,1.18.96,2.15,2.15,2.15H72.82c1.55,0,2.68-.82,2.68-1.84v-.28c0-.74-.48-1.2-.82-1.42-1.41-.97-3.99-.3-4.87-.15Z"/>
    <text class="st2" transform="translate(-112 362.45)"><tspan class="st12" x="0" y="0">mono</tspan><tspan class="st21" x="115.01" y="0">lo</tspan><tspan class="st8" x="164.92" y="0">g</tspan></text>
    <text class="st2" transform="translate(-112 419.79)"><tspan class="st12" x="0" y="0">mono</tspan><tspan class="st21" x="115.01" y="0">lo</tspan><tspan class="st8" x="164.92" y="0">g</tspan></text>
    <text class="st2" transform="translate(-344.66 550.8)"><tspan class="st6" x="0" y="0">k</tspan><tspan class="st15" x="25.58" y="0">n</tspan><tspan class="st6" x="52.85" y="0">ock!</tspan></text>
    <path class="st1" d="M61.82,561.54c-.58.1-1.32.12-2.03.12H-109.25c-.74,0-1.25.68-1.25,1.42,0,1.18.96,2.15,2.15,2.15H64.82c1.55,0,2.68-.82,2.68-1.84v-.28c0-.74-.48-1.2-.82-1.42-1.41-.97-3.99-.3-4.87-.15Z"/>
    <text class="st2" transform="translate(-112 493.46)"><tspan class="st12" x="0" y="0">J</tspan><tspan class="st7" x="22.79" y="0">O</tspan><tspan class="st8" x="50.84" y="0">URNAL</tspan></text>
    <text class="st2" transform="translate(-112 550.8)"><tspan class="st12" x="0" y="0">J</tspan><tspan class="st7" x="22.79" y="0">O</tspan><tspan class="st8" x="50.84" y="0">URNAL</tspan></text>
    <text class="st2" transform="translate(22.26 -33.13)"><tspan class="st14" x="0" y="0">C</tspan><tspan class="st8" x="25.11" y="0">ON</tspan><tspan class="st23" x="81.53" y="0">T</tspan><tspan class="st7" x="105.09" y="0">A</tspan><tspan class="st12" x="131.59" y="0">CT</tspan></text>
    <text class="st2" transform="translate(22.26 24.21)"><tspan class="st14" x="0" y="0">C</tspan><tspan class="st8" x="25.11" y="0">ON</tspan><tspan class="st23" x="81.53" y="0">T</tspan><tspan class="st7" x="105.09" y="0">A</tspan><tspan class="st12" x="131.59" y="0">CT</tspan></text>
    <text class="st2" transform="translate(23.26 101.1)"><tspan class="st12" x="0" y="0">P</tspan><tspan class="st21" x="25.26" y="0">R</tspan><tspan class="st6" x="50.68" y="0">O</tspan><tspan class="st13" x="78.74" y="0">J</tspan><tspan class="st6" x="101.99" y="0">E</tspan><tspan class="st8" x="127.56" y="0">CT</tspan></text>
    <text class="st2" transform="translate(23.26 158.44)"><tspan class="st12" x="0" y="0">P</tspan><tspan class="st21" x="25.26" y="0">R</tspan><tspan class="st6" x="50.68" y="0">O</tspan><tspan class="st13" x="78.74" y="0">J</tspan><tspan class="st6" x="101.99" y="0">E</tspan><tspan class="st8" x="127.56" y="0">CT</tspan></text>
    <text class="st5" transform="translate(-107 101.1)"><tspan x="0" y="0">echo</tspan></text>
    <text class="st2" transform="translate(-107 158.44)"><tspan class="st12" x="0" y="0">B</tspan><tspan class="st22" x="25.26" y="0">L</tspan><tspan class="st7" x="47.89" y="0">O</tspan><tspan class="st8" x="75.95" y="0">G</tspan></text>
    <path class="st1" d="M47.39,306.01c-.58.1-1.32.12-2.03.12H-111.23c-.74,0-1.25.68-1.25,1.42,0,1.18.96,2.15,2.15,2.15H50.39c1.55,0,2.68-.82,2.68-1.84v-.28c0-.74-.48-1.2-.82-1.42-1.41-.97-3.99-.3-4.87-.15Z"/>
    <text class="st2" transform="translate(-112.43 237.93)"><tspan class="st7" x="0" y="0">A</tspan><tspan class="st22" x="26.5" y="0">r</tspan><tspan class="st7" x="51.92" y="0">c</tspan><tspan class="st18" x="76.72" y="0">h</tspan><tspan class="st21" x="103.54" y="0">i</tspan><tspan class="st6" x="116.87" y="0">ve</tspan></text>
    <text class="st2" transform="translate(-112.43 295.27)"><tspan class="st7" x="0" y="0">A</tspan><tspan class="st22" x="26.5" y="0">r</tspan><tspan class="st7" x="51.92" y="0">c</tspan><tspan class="st18" x="76.72" y="0">h</tspan><tspan class="st21" x="103.54" y="0">i</tspan><tspan class="st6" x="116.87" y="0">ve</tspan></text>
    <text class="st5" transform="translate(-122.8 -33.13)"><tspan x="0" y="0">ABOUT</tspan></text>
    <text class="st4" transform="translate(-118.44 744.36)"><tspan x="0" y="0">{{{ back</tspan></text>
    <path class="st1" d="M240.44,805.49c-.58.1-1.32.12-2.03.12H106.73c-.74,0-1.25.68-1.25,1.42,0,1.18.96,2.15,2.15,2.15h135.81c1.55,0,2.68-.82,2.68-1.84v-.28c0-.74-.48-1.2-.82-1.42-1.41-.97-3.99-.3-4.87-.15Z"/>
    <text class="st2" transform="translate(104.62 794.75)"><tspan class="st6" x="0" y="0">THIN</tspan><tspan class="st20" x="93.93" y="0">G</tspan><tspan class="st6" x="121.21" y="0">S</tspan></text>
    <text class="st2" transform="translate(104.62 737.41)"><tspan class="st6" x="0" y="0">THIN</tspan><tspan class="st20" x="93.93" y="0">G</tspan><tspan class="st6" x="121.21" y="0">S</tspan></text>
    <path class="st1" d="M42.32,686.9c-.58.1-1.32.12-2.03.12H-109.25c-.74,0-1.25.68-1.25,1.42,0,1.18.96,2.15,2.15,2.15H45.32c1.55,0,2.68-.82,2.68-1.84v-.28c0-.74-.48-1.2-.82-1.42-1.41-.97-3.99-.3-4.87-.15Z"/>
    <text class="st2" transform="translate(-111.9 676.16)"><tspan class="st6" x="0" y="0">Dr</tspan><tspan class="st21" x="51.77" y="0">a</tspan><tspan class="st6" x="77.5" y="0">wer</tspan></text>
    <text class="st2" transform="translate(-111.9 618.83)"><tspan class="st6" x="0" y="0">Dr</tspan><tspan class="st21" x="51.77" y="0">a</tspan><tspan class="st6" x="77.5" y="0">wer</tspan></text>
    <path class="st1" d="M318.24,430.53c-.58.1-1.32.12-2.03.12H123.02c-.74,0-1.25.68-1.25,1.42,0,1.18.96,2.15,2.15,2.15h197.32c1.55,0,2.68-.82,2.68-1.84v-.28c0-.74-.48-1.2-.82-1.42-1.41-.97-3.99-.3-4.87-.15Z"/>
    <path class="st1" d="M129.68,474.77c-.58.1-1.32.12-2.03.12h-23.81c-.74,0-1.25.68-1.25,1.42,0,1.18.96,2.15,2.15,2.15h27.95c1.55,0,2.68-.82,2.68-1.84v-.28c0-.74-.48-1.2-.82-1.42-1.41-.97-3.99-.3-4.87-.15Z"/>
    <g>
      <path class="st1" d="M129,553.47c-.45-.5-1.16-.98-1.75-1.57l-18.63-18.63c-.6-.6-1.82-1.5-2.88-.71-.96.72-1.23,2.81,1.33,4.78.36.27.71.55,1.03.87l20.53,20.53c1.26,1.26,2.82,1.55,3.59.78l.21-.21c.57-.57.59-1.33.42-1.75-.71-1.86-2.64-2.76-3.85-4.08Z"/>
      <path class="st1" d="M112.25,555.52c.56-.66,1.82-2,2.4-2.58l16.8-16.8c.6-.6,1.81-2.05,1.1-3.24-.64-1.08-2.74-1.22-3.93.7l-22.22,22.22c-1.26,1.26-1.56,2.8-.8,3.57l.21.21c.56.56,1.31.56,1.73.41,1.6-.59,4.04-3.7,4.71-4.49Z"/>
    </g>
    <path class="st1" d="M129.68,487.59c-.58.1-1.32.12-2.03.12h-23.81c-.74,0-1.25.68-1.25,1.42,0,1.18.96,2.15,2.15,2.15h27.95c1.55,0,2.68-.82,2.68-1.84v-.28c0-.74-.48-1.2-.82-1.42-1.41-.97-3.99-.3-4.87-.15Z"/>
    <text class="st2" transform="translate(121.51 362.45)"><tspan class="st16" x="0" y="0">A</tspan><tspan class="st17" x="26.66" y="0">p</tspan><tspan class="st14" x="51.15" y="0">e</tspan><tspan class="st20" x="77.03" y="0">r</tspan><tspan class="st6" x="102.76" y="0">t</tspan><tspan class="st15" x="128.34" y="0">u</tspan><tspan class="st22" x="155" y="0">re</tspan></text>
    <path class="st1" d="M189.68,474.77c-.58.1-1.32.12-2.03.12h-23.81c-.74,0-1.25.68-1.25,1.42,0,1.18.96,2.15,2.15,2.15h27.95c1.55,0,2.68-.82,2.68-1.84v-.28c0-.74-.48-1.2-.82-1.42-1.41-.97-3.99-.3-4.87-.15Z"/>
    <path class="st1" d="M189.68,487.59c-.58.1-1.32.12-2.03.12h-13.89c-.74,0-1.25.68-1.25,1.42,0,1.18.96,2.15,2.15,2.15h18.03c1.55,0,2.68-.82,2.68-1.84v-.28c0-.74-.48-1.2-.82-1.42-1.41-.97-3.99-.3-4.87-.15Z"/>
    <path class="st1" d="M189.68,500.4c-.58.1-4.29.12-5.01.12h-.99c-.74,0-1.25.68-1.25,1.42,0,1.18.96,2.15,2.15,2.15h8.11c1.55,0,2.68-.82,2.68-1.84v-.28c0-.74-.48-1.2-.82-1.42-1.41-.97-3.99-.3-4.87-.15Z"/>
    <path class="st1" d="M129.68,500.4c-.58.1-1.32.12-2.03.12h-23.81c-.74,0-1.25.68-1.25,1.42,0,1.18.96,2.15,2.15,2.15h27.95c1.55,0,2.68-.82,2.68-1.84v-.28c0-.74-.48-1.2-.82-1.42-1.41-.97-3.99-.3-4.87-.15Z"/>
    <text class="st3" transform="translate(-76.77 801.47)"><tspan x="0" y="0">close</tspan></text>
    <g>
      <path class="st1" d="M-87.68,796.72c-.38-.42-1-.81-1.5-1.3l-15.75-15.75c-.51-.51-1.57-1.23-2.68-.35-1,.79-1.5,2.83.74,4.43.31.22.62.45.89.72l17.35,17.35c1.07,1.07,2.52,1.17,3.35.34l.23-.23c.61-.61.71-1.34.6-1.73-.47-1.7-2.22-2.34-3.23-3.48Z"/>
      <path class="st1" d="M-101.84,799.03c.46-.56,1.52-1.7,2.01-2.2l14.2-14.2c.51-.51,1.5-1.75.71-2.95-.71-1.09-2.71-1.43-3.65.27l-18.78,18.78c-1.07,1.07-1.2,2.5-.4,3.29l.22.22c.58.58,1.3.66,1.68.56,1.45-.4,3.45-3.09,4-3.77Z"/>
    </g>
    <text class="st5" transform="translate(122.26 237.93)"><tspan x="0" y="0">draft</tspan></text>
    <text class="st5" transform="translate(122.26 295.27)"><tspan x="0" y="0">draft</tspan></text>
    <text class="st2" transform="translate(121.51 419.79)"><tspan class="st16" x="0" y="0">A</tspan><tspan class="st17" x="26.66" y="0">p</tspan><tspan class="st14" x="51.15" y="0">e</tspan><tspan class="st20" x="77.03" y="0">r</tspan><tspan class="st6" x="102.76" y="0">t</tspan><tspan class="st15" x="128.34" y="0">u</tspan><tspan class="st22" x="155" y="0">re</tspan></text>
    <text class="st2" transform="translate(97.54 625.77)"><tspan class="st7" x="0" y="0">{{{ </tspan><tspan class="st9" x="46.81" y="0">c</tspan><tspan class="st21" x="72.07" y="0">l</tspan><tspan class="st10" x="94.7" y="0">o</tspan><tspan class="st6" x="123.22" y="0">ser</tspan></text>
    <text class="st2" transform="translate(98.98 683.11)"><tspan class="st6" x="0" y="0">f</tspan><tspan class="st11" x="25.26" y="0">u</tspan><tspan class="st22" x="52.54" y="0">rt</tspan><tspan class="st10" x="102.76" y="0">he</tspan><tspan class="st7" x="156.39" y="0">r }}}</tspan></text>
    <path class="st1" d="M232.42,531.24c-.06-.04-.55-.37-1.22-.15-.6.19-1.49.88-2.3,3.06l-4.33,9.61c-.35.74-.55,1.67-.55,2.55.04.47.12,1.06.42,1.69.17.37,4.02,8.94,4.29,9.76.7,2.19,1.86,3.35,2.69,3.53.37.07.92.03,1.35-.33.07-.05,1.74-1.14-.58-5.34l-4.45-9.22,1.91-4.43c.39-.9,1.84-4.09,2.27-4.81.95-1.6,1.88-3.24,1.75-4.17-.09-.59-.18-1.17-1.25-1.75Z"/>
    <path class="st1" d="M176,561.08c.06.04.55.37,1.22.15.6-.19,1.49-.88,2.3-3.06l4.33-9.61c.35-.74.55-1.67.55-2.55-.04-.47-.12-1.06-.42-1.69-.17-.37-4.02-8.94-4.29-9.76-.7-2.19-1.86-3.35-2.69-3.53-.37-.07-.92-.03-1.35.33-.07.05-1.74,1.14.58,5.34l4.45,9.22-1.91,4.43c-.39.9-1.84,4.09-2.27,4.81-.95,1.6-1.88,3.24-1.75,4.17.09.59.18,1.17,1.25,1.75Z"/>
    <path class="st1" d="M-121.7,53.95c0,1.32.96,2.39,2.15,2.39h.25v-3.96h-1.15c-.74,0-1.25.76-1.25,1.58Z"/>
    <path class="st1" d="M-94.01,52.4c-1.41-1.08-3.99-.33-4.87-.17-.58.11-1.32.13-2.03.13h-.88v3.96h5.92c1.55,0,2.68-.92,2.68-2.04v-.31c0-.82-.48-1.33-.82-1.58Z"/>
  </g>
</svg>